# File created by Blade
# Date/Time:  Tue Jan 27 19:54:25 2015
# Frame Rate: 120.000 fps
#------------------------------------------------------
:FULLY-SPECIFIED
:DEGREES
3538
root 4.235589 35.076770 -1.722163 41.061435 -8.757620 -40.850967
Spine 1.796129 21.131536 10.192553
Head -45.094289 5.192928 19.458668
LeftShoulder -16.747181 -4.694412 38.784404
LeftArm -15.884681 -60.507543 -46.567991
LeftForeArm -78.618715 -0.000000 136.418835
LeftHand 8.352801 0.000000 -36.131907
LeftHandThumb1 -26.253704 0.000000 33.147579
RightShoulder -12.211922 -5.409609 -14.427735
RightArm 24.940851 -37.820783 76.248341
RightForeArm -27.882736 -0.000000 23.846198
RightHand 17.387498 -0.000000 10.157125
RightHandThumb1 -24.326973 -0.000000 -32.862282
LeftUpLeg -21.822574 16.443817 33.189648
LeftLeg -5.997336 -0.000000 0.000000
LeftFoot -11.829830 8.751239 -18.134116
LeftToeBase 26.166940 -0.000000 -0.000000
RightUpLeg 20.023242 -31.534772 -35.173860
RightLeg 103.598080 -0.000000 -0.000000
RightFoot 27.732242 -28.300167 25.351243
RightToeBase 11.931896 -0.000000 -0.000000
3539
root 4.218628 35.079585 -1.734030 41.225642 -8.700087 -40.872681
Spine 1.705286 21.174396 10.021997
Head -45.430313 5.196029 19.602877
LeftShoulder -16.775752 -4.734711 38.918781
LeftArm -15.929409 -60.606214 -46.325389
LeftForeArm -78.862029 -0.000000 136.368882
LeftHand 8.370090 -0.000000 -36.197125
LeftHandThumb1 -26.253704 0.000000 33.147579
RightShoulder -12.236452 -5.344881 -14.372406
RightArm 24.864173 -37.858784 76.282370
RightForeArm -27.840405 0.000000 23.826657
RightHand 17.373086 0.000000 10.231426
RightHandThumb1 -24.326973 -0.000000 -32.862282
LeftUpLeg -22.014853 16.599076 33.200040
LeftLeg -5.974029 -0.000000 0.000000
LeftFoot -11.825498 8.666603 -18.147828
LeftToeBase 26.255314 -0.000000 -0.000000
RightUpLeg 20.323116 -31.432906 -35.424222
RightLeg 103.574371 -0.000000 -0.000000
RightFoot 27.850170 -28.329055 25.105151
RightToeBase 12.223613 -0.000000 -0.000000
3540
root 4.198268 35.089044 -1.747779 41.435543 -8.535795 -40.985058
Spine 1.600507 21.161203 10.042097
Head -45.777508 5.212744 19.604900
LeftShoulder -16.796997 -4.790403 38.979702
LeftArm -16.216743 -60.712911 -45.821742
LeftForeArm -79.166869 -0.000000 136.325322
LeftHand 8.317297 -0.000000 -36.294630
LeftHandThumb1 -26.253704 0.000000 33.147579
RightShoulder -12.231768 -5.393500 -14.367404
RightArm 24.931470 -37.890195 76.242945
RightForeArm -27.843708 0.000000 23.809594
RightHand 17.438409 -0.000000 10.253632
RightHandThumb1 -24.326973 -0.000000 -32.862282
LeftUpLeg -22.277422 16.715295 33.381946
LeftLeg -5.889604 -0.000000 0.000000
LeftFoot -11.847509 8.589532 -18.284138
LeftToeBase 26.231775 -0.000000 -0.000000
RightUpLeg 20.571607 -31.365623 -35.425926
RightLeg 103.509101 -0.000000 -0.000000
RightFoot 27.957831 -28.375109 25.051186
RightToeBase 12.113949 -0.000000 -0.000000
3541
root 4.179546 35.097926 -1.762446 41.637412 -8.350058 -41.073135
Spine 1.500480 21.158454 10.063195
Head -46.132134 5.147830 19.616761
LeftShoulder -16.791787 -4.795411 39.036827
LeftArm -16.344134 -60.825527 -45.491607
LeftForeArm -79.473616 -0.000000 136.255299
LeftHand 8.452377 -0.000000 -36.378847
LeftHandThumb1 -26.253704 0.000000 33.147579
RightShoulder -12.239731 -5.416640 -14.368685
RightArm 24.953942 -37.932835 76.220694
RightForeArm -27.879501 -0.000000 23.800701
RightHand 17.381249 -0.000000 10.259353
RightHandThumb1 -24.326973 -0.000000 -32.862282
LeftUpLeg -22.569169 16.804680 33.545731
LeftLeg -5.794344 -0.000000 0.000000
LeftFoot -11.867925 8.539843 -18.366816
LeftToeBase 26.311267 -0.000000 -0.000000
RightUpLeg 20.881993 -31.356526 -35.496545
RightLeg 103.449266 -0.000000 -0.000000
RightFoot 28.194104 -28.307384 24.613050
RightToeBase 11.312739 -0.000000 -0.000000
3542
root 4.166562 35.108579 -1.789391 41.941958 -8.513662 -41.195295
Spine 1.342813 21.453234 9.743309
Head -46.482559 5.158646 19.790339
LeftShoulder -16.794050 -4.852642 39.215227
LeftArm -16.486325 -60.922576 -45.141479
LeftForeArm -79.767632 -0.000000 136.173785
LeftHand 8.395393 0.000000 -36.365799
LeftHandThumb1 -26.253704 0.000000 33.147579
RightShoulder -12.233080 -5.302941 -14.296350
RightArm 24.824774 -37.963755 76.316429
RightForeArm -27.899998 0.000000 23.808257
RightHand 17.265975 -0.000000 10.229992
RightHandThumb1 -24.326973 -0.000000 -32.862282
LeftUpLeg -22.729976 17.220758 33.495080
LeftLeg -5.775611 -0.000000 0.000000
LeftFoot -11.878627 8.470690 -18.556272
LeftToeBase 26.600773 -0.000000 -0.000000
RightUpLeg 20.767006 -31.155443 -35.562313
RightLeg 103.608252 -0.000000 -0.000000
RightFoot 27.737568 -28.445967 25.120881
RightToeBase 12.527469 -0.000000 -0.000000
3543
root 4.155084 35.119072 -1.817637 42.269929 -8.685537 -41.315764
Spine 1.169650 21.740265 9.415745
Head -46.843127 5.184264 19.936100
LeftShoulder -16.811513 -4.788361 39.341000
LeftArm -16.449740 -61.105651 -44.908983
LeftForeArm -79.962887 -0.000000 136.099114
LeftHand 8.512168 0.000000 -36.301040
LeftHandThumb1 -26.253704 0.000000 33.147579
RightShoulder -12.226818 -5.324405 -14.208081
RightArm 24.846423 -37.859484 76.393116
RightForeArm -28.016932 -0.000000 23.770831
RightHand 17.233783 -0.000000 10.421122
RightHandThumb1 -24.326973 -0.000000 -32.862282
LeftUpLeg -22.905235 17.623041 33.434020
LeftLeg -5.747797 -0.000000 0.000000
LeftFoot -11.789427 8.444336 -18.388477
LeftToeBase 26.348179 -0.000000 -0.000000
RightUpLeg 20.611592 -30.967238 -35.630631
RightLeg 103.763615 -0.000000 -0.000000
RightFoot 27.644858 -28.551717 25.424473
RightToeBase 12.606608 -0.000000 -0.000000
3544
root 4.137985 35.124994 -1.831232 42.451987 -8.542655 -41.386507
Spine 1.109916 21.738270 9.401477
Head -47.205410 5.188646 19.919242
LeftShoulder -16.853556 -4.785374 39.386386
LeftArm -16.484444 -61.216517 -44.586734
LeftForeArm -80.103241 0.000000 136.054875
LeftHand 8.514041 -0.000000 -36.262364
LeftHandThumb1 -26.253704 0.000000 33.147579
RightShoulder -12.226099 -5.318689 -14.190037
RightArm 24.864995 -37.907585 76.350881
RightForeArm -27.969376 0.000000 23.759449
RightHand 17.259133 0.000000 10.318395
RightHandThumb1 -24.326973 -0.000000 -32.862282
LeftUpLeg -23.135234 17.676436 33.583200
LeftLeg -5.690845 -0.000000 0.000000
LeftFoot -11.807422 8.417624 -18.466623
LeftToeBase 26.332963 -0.000000 -0.000000
RightUpLeg 20.932437 -30.947145 -35.775559
RightLeg 103.747966 -0.000000 -0.000000
RightFoot 27.544267 -28.645223 25.532213
RightToeBase 12.421509 -0.000000 -0.000000
